# xmcd
#
# Track frame offsets: 
#        182
#        15720
#        35810
#        55837
#        79910
#        101300
#        127690
#        143977
#        162267
#        212427
#        249402
#        265612
#
# Disc length: 3965 seconds
#
# Revision: 7
# Processed by: cddbd v1.5.2PL0 Copyright (c) Steve Scherf et al.
# Submitted via: ExactAudioCopyFreeDBPlugin 1.0
#
DISCID=960f7b0c
DTITLE=Various Artist - Smooth Grooves:  A Sensual Collection [Rhino]
DYEAR=1996
DGENRE=SMB
TTITLE0=The Jones Girls - Who Can I Run To
TTITLE1=The Emotions - Don't Ask My Neighbor
TTITLE2=Robert Winters and Fall - Magic Man
TTITLE3=Atlantic Starr - Let's Get Closer
TTITLE4=Miki Howard - Come Share My Love
TTITLE5=Levert - (Pop,Pop,Pop,Pop) Goes My Mind
TTITLE6=Larry Graham - When We Get Married
TTITLE7=The Nights - Country Girl (You're My Everything)
TTITLE8=Millie Jackson - (If Loving You is Wrong), I Don't Want to Be 
TTITLE8=Right
TTITLE9=Patti LaBelle - If You Don't Know Me By Now
TTITLE10=Black Ice - Blind Over You
TTITLE11=Herbie Hancock - Stars in Your Eyes
EXTD=CD Title:  Smooth Grooves  A Sensual Collection  Vol 8\nMy Name: 
EXTD=Todd Montgomery
EXTT0=
EXTT1=
EXTT2=
EXTT3=
EXTT4=
EXTT5=
EXTT6=
EXTT7=
EXTT8=
EXTT9=
EXTT10=
EXTT11=
PLAYORDER=
